<svg width="120" height="120" viewBox="0 0 120 120" fill="none" xmlns="http://www.w3.org/2000/svg">
<g id="home_active">
<g id="Category">
<path id="Category_2" fill-rule="evenodd" clip-rule="evenodd" d="M22.7 10H39.6C46.65 10 52.3 15.75 52.3 22.805V39.85C52.3 46.95 46.65 52.65 39.6 52.65H22.7C15.7 52.65 10 46.95 10 39.85V22.805C10 15.75 15.7 10 22.7 10ZM22.7 67.3486H39.6C46.65 67.3486 52.3 73.0536 52.3 80.1536V97.1986C52.3 104.249 46.65 109.999 39.6 109.999H22.7C15.7 109.999 10 104.249 10 97.1986V80.1536C10 73.0536 15.7 67.3486 22.7 67.3486ZM97.3003 10H80.4003C73.3503 10 67.7003 15.75 67.7003 22.805V39.85C67.7003 46.95 73.3503 52.65 80.4003 52.65H97.3003C104.3 52.65 110 46.95 110 39.85V22.805C110 15.75 104.3 10 97.3003 10ZM80.4003 67.3486H97.3003C104.3 67.3486 110 73.0536 110 80.1536V97.1986C110 104.249 104.3 109.999 97.3003 109.999H80.4003C73.3503 109.999 67.7003 104.249 67.7003 97.1986V80.1536C67.7003 73.0536 73.3503 67.3486 80.4003 67.3486Z" fill="#725CFF"/>
</g>
</g>
</svg>
