<svg width="120" height="120" viewBox="0 0 120 120" fill="none" xmlns="http://www.w3.org/2000/svg">
<g id="home">
<g id="Category">
<path id="Stroke 1" fill-rule="evenodd" clip-rule="evenodd" d="M15 32.5C15 19.3739 15.1405 15 32.5 15C49.8595 15 50 19.3739 50 32.5C50 45.6261 50.0554 50 32.5 50C14.9446 50 15 45.6261 15 32.5Z" stroke="#725CFF" stroke-width="9" stroke-linecap="round" stroke-linejoin="round"/>
<path id="Stroke 3" fill-rule="evenodd" clip-rule="evenodd" d="M70 32.5C70 19.3739 70.1405 15 87.5 15C104.859 15 105 19.3739 105 32.5C105 45.6261 105.055 50 87.5 50C69.9446 50 70 45.6261 70 32.5Z" stroke="#725CFF" stroke-width="9" stroke-linecap="round" stroke-linejoin="round"/>
<path id="Stroke 5" fill-rule="evenodd" clip-rule="evenodd" d="M15 87.5C15 74.3739 15.1405 70 32.5 70C49.8595 70 50 74.3739 50 87.5C50 100.626 50.0554 105 32.5 105C14.9446 105 15 100.626 15 87.5Z" stroke="#725CFF" stroke-width="9" stroke-linecap="round" stroke-linejoin="round"/>
<path id="Stroke 7" fill-rule="evenodd" clip-rule="evenodd" d="M70 87.5C70 74.3739 70.1405 70 87.5 70C104.859 70 105 74.3739 105 87.5C105 100.626 105.055 105 87.5 105C69.9446 105 70 100.626 70 87.5Z" stroke="#725CFF" stroke-width="9" stroke-linecap="round" stroke-linejoin="round"/>
</g>
</g>
</svg>
